<svg width="641" height="437" viewBox="0 0 641 437" fill="none" xmlns="http://www.w3.org/2000/svg">
<path d="M136.654 74.4081C51.7083 65.2084 3.77536 102.006 0 104.728V422.294H531.179V74.4081C442 56.5748 363.176 2.7222 301.826 0C288.927 28.1299 237.67 85.3482 136.654 74.4081Z" fill="url(#paint0_linear_134_2495)"/>
<path d="M295.113 81.6678C333.621 47.5489 318.08 13.0066 304.551 0.907715C440.462 0.907715 430 44.8461 640.888 92.9318L641 436.093H45V260.429C65.1349 260.731 38.5389 211.401 64.8203 161.52C80.5976 131.576 246.978 124.316 295.113 81.6678Z" fill="url(#paint1_radial_134_2495)"/>
<path d="M0 207.986V432.463H547.224V174.224C513.246 174.224 542.505 115.242 510.415 115.242C472.661 178.761 317.092 214.956 238.589 195.095C202.723 186.021 95.4396 156.681 66.8098 157.891C45.1014 195.095 0 207.986 0 207.986Z" fill="url(#paint2_radial_134_2495)"/>
<g filter="url(#filter0_f_134_2495)">
<path d="M171.575 226.854C113.314 214.027 66 210.431 36.248 226.854C6.49599 243.278 41.9102 389.282 61.7312 382.023C81.5523 374.763 147.036 341.376 171.575 332.302C196.115 323.228 317.87 273.133 407.535 198.724C360.343 206.891 295.218 254.077 171.575 226.854Z" fill="#E3B76F" fill-opacity="0.6"/>
</g>
<path d="M385.828 228.669C450.009 178.761 487.762 169.687 511.358 115.242C535.898 115.242 641 151.006 641 151.006V437H0V389.657C36.8098 389.657 91.3496 337.902 123.44 334.837C243.344 323.384 311.264 286.651 385.828 228.669Z" fill="url(#paint3_linear_134_2495)"/>
<defs>
<filter id="filter0_f_134_2495" x="4.80762" y="178.724" width="422.728" height="223.56" filterUnits="userSpaceOnUse" color-interpolation-filters="sRGB">
<feFlood flood-opacity="0" result="BackgroundImageFix"/>
<feBlend mode="normal" in="SourceGraphic" in2="BackgroundImageFix" result="shape"/>
<feGaussianBlur stdDeviation="10" result="effect1_foregroundBlur_134_2495"/>
</filter>
<linearGradient id="paint0_linear_134_2495" x1="332.029" y1="70.7785" x2="182.677" y2="557.836" gradientUnits="userSpaceOnUse">
<stop offset="0.0212968" stop-color="#E3B76F"/>
<stop offset="0.835366" stop-color="#681B15"/>
</linearGradient>
<radialGradient id="paint1_radial_134_2495" cx="0" cy="0" r="1" gradientUnits="userSpaceOnUse" gradientTransform="translate(338.529 285.837) rotate(-57.5786) scale(383.766 488.872)">
<stop offset="0.469647" stop-color="#E3B770"/>
<stop offset="0.977482" stop-color="#AF5A33"/>
</radialGradient>
<radialGradient id="paint2_radial_134_2495" cx="0" cy="0" r="1" gradientUnits="userSpaceOnUse" gradientTransform="translate(398.098 -11.7962) rotate(112.069) scale(612.951 1288.36)">
<stop offset="0.174816" stop-color="#761912"/>
<stop offset="0.718035" stop-color="#E3B76F"/>
</radialGradient>
<linearGradient id="paint3_linear_134_2495" x1="534.01" y1="85.2971" x2="-165.067" y2="812.435" gradientUnits="userSpaceOnUse">
<stop offset="0.0536249" stop-color="#E3B76F"/>
<stop offset="1" stop-color="#AF5A33"/>
</linearGradient>
</defs>
</svg>
