<svg width="70" height="70" viewBox="0 0 70 70" fill="none" xmlns="http://www.w3.org/2000/svg">
    <path fill-rule="evenodd" clip-rule="evenodd" d="M17.5011 0L12.5333 4.96777H4.96777V12.5333L0 17.5011L4.96777 22.4688V30.0344H12.5333L17.5011 35.0021L22.4688 30.0344H30.0344V22.4688L35.0021 17.5011L30.0344 12.5333V4.96777H22.4688L17.5011 0ZM14.7558 6.98786L17.5011 4.24264L20.2475 6.9891L17.5023 9.73432L14.7558 6.98786ZM14.1556 12.7404L16.5021 15.0868V11.5625L14.1556 9.21606V12.7404ZM18.5021 11.563V15.0868L20.848 12.7409V9.21701L18.5021 11.563ZM22.2628 14.1545L19.9163 16.501H24.1089L26.4555 14.1545H22.2628ZM24.1091 18.501H19.9163L22.2626 20.8474H26.4555L24.1091 18.501ZM20.848 22.2612L18.5021 19.9153V24.1077L20.848 26.4536V22.2612ZM16.5021 24.1081V19.9153L14.1556 22.2617V26.4546L16.5021 24.1081ZM12.7415 20.8474L15.0878 18.501H11.2293L8.88297 20.8474H12.7415ZM11.2295 16.501H15.0878L12.7413 14.1545H8.88295L11.2295 16.501ZM4.24264 17.5011L6.82186 14.9218L9.40099 17.501L6.82177 20.0802L4.24264 17.5011ZM28.3484 15.09L25.9374 17.501L28.3485 19.912L30.7595 17.5011L28.3484 15.09ZM17.5011 30.7595L15.0901 28.3485L17.5023 25.9363L19.9132 28.3473L17.5011 30.7595ZM12.1556 12.1545H7.96777V7.96777H12.1556V12.1545ZM27.0344 12.1545V7.96777H22.848V12.1545H27.0344ZM22.848 22.8474H27.0344V27.0344H22.848V22.8474ZM7.96777 22.8474V27.0344H12.1556V22.8474H7.96777Z" fill="#170632"/>
    <path fill-rule="evenodd" clip-rule="evenodd" d="M52.5011 0L47.5333 4.96777H39.9678V12.5333L35 17.5011L39.9678 22.4688V30.0344H47.5333L52.5011 35.0021L57.4688 30.0344H65.0344V22.4688L70.0021 17.5011L65.0344 12.5333V4.96777H57.4688L52.5011 0ZM49.7558 6.98786L52.5011 4.24264L55.2475 6.9891L52.5023 9.73432L49.7558 6.98786ZM49.1556 12.7404L51.5021 15.0868V11.5625L49.1556 9.21606V12.7404ZM53.5021 11.563V15.0868L55.848 12.7409V9.21701L53.5021 11.563ZM57.2628 14.1545L54.9163 16.501H59.1089L61.4555 14.1545H57.2628ZM59.1091 18.501H54.9163L57.2626 20.8474H61.4555L59.1091 18.501ZM55.848 22.2612L53.5021 19.9153V24.1077L55.848 26.4536V22.2612ZM51.5021 24.1081V19.9153L49.1556 22.2617V26.4546L51.5021 24.1081ZM47.7415 20.8474L50.0878 18.501H46.2293L43.883 20.8474H47.7415ZM46.2295 16.501H50.0878L47.7413 14.1545H43.8829L46.2295 16.501ZM39.2426 17.5011L41.8219 14.9218L44.401 17.501L41.8218 20.0802L39.2426 17.5011ZM63.3484 15.09L60.9374 17.501L63.3485 19.912L65.7595 17.5011L63.3484 15.09ZM52.5011 30.7595L50.0901 28.3485L52.5023 25.9363L54.9132 28.3473L52.5011 30.7595ZM47.1556 12.1545H42.9678V7.96777H47.1556V12.1545ZM62.0344 12.1545V7.96777H57.848V12.1545H62.0344ZM57.848 22.8474H62.0344V27.0344H57.848V22.8474ZM42.9678 22.8474V27.0344H47.1556V22.8474H42.9678Z" fill="#170632"/>
    <path fill-rule="evenodd" clip-rule="evenodd" d="M17.5011 35L12.5333 39.9678H4.96777V47.5333L0 52.5011L4.96777 57.4688V65.0344H12.5333L17.5011 70.0021L22.4688 65.0344H30.0344V57.4688L35.0021 52.5011L30.0344 47.5333V39.9678H22.4688L17.5011 35ZM14.7558 41.9879L17.5011 39.2426L20.2475 41.9891L17.5023 44.7343L14.7558 41.9879ZM14.1556 47.7404L16.5021 50.0868V46.5625L14.1556 44.2161V47.7404ZM18.5021 46.563V50.0868L20.848 47.7409V44.217L18.5021 46.563ZM22.2628 49.1545L19.9163 51.501H24.1089L26.4555 49.1545H22.2628ZM24.1091 53.501H19.9163L22.2626 55.8474H26.4555L24.1091 53.501ZM20.848 57.2612L18.5021 54.9153V59.1077L20.848 61.4536V57.2612ZM16.5021 59.1081V54.9153L14.1556 57.2617V61.4546L16.5021 59.1081ZM12.7415 55.8474L15.0878 53.501H11.2293L8.88297 55.8474H12.7415ZM11.2295 51.501H15.0878L12.7413 49.1545H8.88295L11.2295 51.501ZM4.24264 52.5011L6.82186 49.9218L9.40099 52.501L6.82177 55.0802L4.24264 52.5011ZM28.3484 50.09L25.9374 52.501L28.3485 54.912L30.7595 52.5011L28.3484 50.09ZM17.5011 65.7595L15.0901 63.3485L17.5023 60.9363L19.9132 63.3473L17.5011 65.7595ZM12.1556 47.1545H7.96777V42.9678H12.1556V47.1545ZM27.0344 47.1545V42.9678H22.848V47.1545H27.0344ZM22.848 57.8474H27.0344V62.0344H22.848V57.8474ZM7.96777 57.8474V62.0344H12.1556V57.8474H7.96777Z" fill="#170632"/>
    <path fill-rule="evenodd" clip-rule="evenodd" d="M52.5011 35L47.5333 39.9678H39.9678V47.5333L35 52.5011L39.9678 57.4688V65.0344H47.5333L52.5011 70.0021L57.4688 65.0344H65.0344V57.4688L70.0021 52.5011L65.0344 47.5333V39.9678H57.4688L52.5011 35ZM49.7558 41.9879L52.5011 39.2426L55.2475 41.9891L52.5023 44.7343L49.7558 41.9879ZM49.1556 47.7404L51.5021 50.0868V46.5625L49.1556 44.2161V47.7404ZM53.5021 46.563V50.0868L55.848 47.7409V44.217L53.5021 46.563ZM57.2628 49.1545L54.9163 51.501H59.1089L61.4555 49.1545H57.2628ZM59.1091 53.501H54.9163L57.2626 55.8474H61.4555L59.1091 53.501ZM55.848 57.2612L53.5021 54.9153V59.1077L55.848 61.4536V57.2612ZM51.5021 59.1081V54.9153L49.1556 57.2617V61.4546L51.5021 59.1081ZM47.7415 55.8474L50.0878 53.501H46.2293L43.883 55.8474H47.7415ZM46.2295 51.501H50.0878L47.7413 49.1545H43.8829L46.2295 51.501ZM39.2426 52.5011L41.8219 49.9218L44.401 52.501L41.8218 55.0802L39.2426 52.5011ZM63.3484 50.09L60.9374 52.501L63.3485 54.912L65.7595 52.5011L63.3484 50.09ZM52.5011 65.7595L50.0901 63.3485L52.5023 60.9363L54.9132 63.3473L52.5011 65.7595ZM47.1556 47.1545H42.9678V42.9678H47.1556V47.1545ZM62.0344 47.1545V42.9678H57.848V47.1545H62.0344ZM57.848 57.8474H62.0344V62.0344H57.848V57.8474ZM42.9678 57.8474V62.0344H47.1556V57.8474H42.9678Z" fill="#170632"/>
</svg>
