<svg width="641" height="316" viewBox="0 0 641 316" fill="none" xmlns="http://www.w3.org/2000/svg">
<path d="M136.654 53.9239C51.7083 47.2568 3.77536 73.9239 0 75.8967V306.038H531.179V53.9239C442 41 363.176 1.97279 301.826 0C288.927 20.3859 237.67 61.8522 136.654 53.9239Z" fill="url(#paint0_linear_134_2489)"/>
<path d="M295.113 59.1848C333.621 34.4587 318.08 9.42577 304.551 0.657654C440.462 0.657654 430 32.5 640.888 67.3479L641 316.038H45V188.734C65.1349 188.953 38.5389 153.203 64.8203 117.054C80.5976 95.3533 246.978 90.0924 295.113 59.1848Z" fill="url(#paint1_radial_134_2489)"/>
<path d="M0 150.728V313.408H547.224V126.261C513.246 126.261 542.505 83.5164 510.415 83.5164C472.661 129.549 317.092 155.78 238.589 141.386C202.723 134.81 95.4396 113.547 66.8098 114.424C45.1014 141.386 0 150.728 0 150.728Z" fill="url(#paint2_radial_134_2489)"/>
<g filter="url(#filter0_f_134_2489)">
<path d="M171.575 164.402C113.314 155.106 66 152.5 36.248 164.402C6.49599 176.304 41.9102 282.114 61.7312 276.853C81.5523 271.592 147.036 247.397 171.575 240.821C196.115 234.245 317.87 197.94 407.535 144.016C360.343 149.935 295.218 184.13 171.575 164.402Z" fill="#E3B76F" fill-opacity="0.6"/>
</g>
<path d="M385.828 165.717C450.009 129.549 487.762 122.973 511.358 83.5164C535.898 83.5164 641 109.435 641 109.435V316.696H0V282.386C36.8098 282.386 91.3496 244.879 123.44 242.658C243.344 234.358 311.264 207.737 385.828 165.717Z" fill="url(#paint3_linear_134_2489)"/>
<defs>
<filter id="filter0_f_134_2489" x="4.80762" y="124.016" width="422.728" height="173.027" filterUnits="userSpaceOnUse" color-interpolation-filters="sRGB">
<feFlood flood-opacity="0" result="BackgroundImageFix"/>
<feBlend mode="normal" in="SourceGraphic" in2="BackgroundImageFix" result="shape"/>
<feGaussianBlur stdDeviation="10" result="effect1_foregroundBlur_134_2489"/>
</filter>
<linearGradient id="paint0_linear_134_2489" x1="332.029" y1="51.2935" x2="250.253" y2="419.283" gradientUnits="userSpaceOnUse">
<stop offset="0.0212968" stop-color="#E3B76F"/>
<stop offset="0.835366" stop-color="#681B15"/>
</linearGradient>
<radialGradient id="paint1_radial_134_2489" cx="0" cy="0" r="1" gradientUnits="userSpaceOnUse" gradientTransform="translate(338.529 207.147) rotate(-48.7681) scale(312.169 435.544)">
<stop offset="0.469647" stop-color="#E3B770"/>
<stop offset="0.977482" stop-color="#AF5A33"/>
</radialGradient>
<radialGradient id="paint2_radial_134_2489" cx="0" cy="0" r="1" gradientUnits="userSpaceOnUse" gradientTransform="translate(398.098 -8.54884) rotate(119.224) scale(471.702 1213.27)">
<stop offset="0.174816" stop-color="#761912"/>
<stop offset="0.718035" stop-color="#E3B76F"/>
</radialGradient>
<linearGradient id="paint3_linear_134_2489" x1="534.01" y1="61.815" x2="58.3849" y2="744.462" gradientUnits="userSpaceOnUse">
<stop offset="0.0536249" stop-color="#E3B76F"/>
<stop offset="1" stop-color="#AF5A33"/>
</linearGradient>
</defs>
</svg>
