<svg width="139" height="65" viewBox="0 0 139 65" fill="none" xmlns="http://www.w3.org/2000/svg">
    <path fill-rule="evenodd" clip-rule="evenodd" d="M78.5 17.5C78.5 19.3272 77.5933 21.4016 76.1814 23.2213C76.3874 23.4134 76.5866 23.6126 76.7787 23.8186C78.5984 22.4067 80.6728 21.5 82.5 21.5C88.4891 21.5 91.6087 24.3696 96.187 28.581C97.342 29.6435 98.5899 30.7913 100 32C98.5899 33.2087 97.3421 34.3565 96.1871 35.4189C91.6087 39.6304 88.4891 42.5 82.5 42.5C80.6728 42.5 78.5984 41.5933 76.7787 40.1814C76.5866 40.3874 76.3874 40.5866 76.1814 40.7787C77.5933 42.5984 78.5 44.6728 78.5 46.5C78.5 52.4891 75.6304 55.6087 71.419 60.187C70.3565 61.342 69.2087 62.5899 68 64C66.7913 62.5899 65.6435 61.342 64.581 60.187C60.3696 55.6087 57.5 52.4891 57.5 46.5C57.5 44.6728 58.4067 42.5984 59.8186 40.7787C59.6126 40.5866 59.4134 40.3874 59.2213 40.1814C57.4016 41.5933 55.3272 42.5 53.5 42.5C47.5109 42.5 44.3913 39.6304 39.813 35.419C38.658 34.3566 37.4101 33.2087 36 32C37.4102 30.7913 38.658 29.6435 39.813 28.581C44.3913 24.3696 47.5109 21.5 53.5 21.5C55.3272 21.5 57.4016 22.4067 59.2213 23.8186C59.4134 23.6126 59.6126 23.4134 59.8186 23.2213C58.4067 21.4016 57.5 19.3272 57.5 17.5C57.5 11.5109 60.3696 8.39132 64.581 3.81296C65.6435 2.65797 66.7913 1.41015 68 0C69.2087 1.4101 70.3564 2.65788 71.4188 3.81283C75.6303 8.3912 78.5 11.5109 78.5 17.5ZM74 18.75C74 19.5033 73.6477 20.3406 73.0718 21.1213C71.5312 20.4019 69.8125 20 68 20C66.1875 20 64.4688 20.4019 62.9282 21.1213C62.3523 20.3406 62 19.5033 62 18.75C62 15.7554 63.6398 14.1957 66.0463 11.9065C66.6533 11.3291 67.3095 10.7049 68 10C68.6907 10.705 69.3465 11.3289 69.9536 11.9064C72.3602 14.1956 74 15.7554 74 18.75ZM80 32C80 33.8125 79.5981 35.5312 78.8787 37.0718C79.6594 37.6477 80.4967 38 81.25 38C84.2446 38 85.8043 36.3602 88.0935 33.9537C88.671 33.3466 89.2949 32.6907 90 32C89.2949 31.3093 88.671 30.6534 88.0935 30.0463C85.8043 27.6398 84.2446 26 81.25 26C80.4967 26 79.6594 26.3523 78.8787 26.9282C79.5981 28.4688 80 30.1875 80 32ZM68 44C66.1875 44 64.4688 43.5981 62.9282 42.8787C62.3523 43.6594 62 44.4967 62 45.25C62 48.2446 63.6398 49.8043 66.0463 52.0935L66.0471 52.0943C66.654 52.6716 67.3096 53.2952 68 54C68.6907 53.2949 69.3466 52.671 69.9537 52.0935C72.3602 49.8043 74 48.2446 74 45.25C74 44.4967 73.6477 43.6594 73.0718 42.8787C71.5312 43.5981 69.8125 44 68 44ZM56 32C56 30.1875 56.4019 28.4688 57.1213 26.9282C56.3406 26.3523 55.5033 26 54.75 26C51.7554 26 50.1957 27.6398 47.9065 30.0463C47.3291 30.6533 46.705 31.3094 46 32C46.705 32.6907 47.3289 33.3465 47.9064 33.9536C50.1956 36.3602 51.7554 38 54.75 38C55.5033 38 56.3406 37.6477 57.1213 37.0718C56.4019 35.5312 56 33.8125 56 32ZM68 39C71.866 39 75 35.866 75 32C75 28.134 71.866 25 68 25C64.134 25 61 28.134 61 32C61 35.866 64.134 39 68 39Z" fill="#F1E4F3"/>
    <path d="M26.9998 44C25.5 55.5 44.5002 60 53 65H0C4.5 63 10.5 56.2 14.5 55C16.1667 54.5 19.5 57 20 57C20.5 57 20.8053 56.4071 20.5 56C14.1639 47.5517 21.5 44 26.9998 44Z" fill="#F1E4F3"/>
    <path d="M112 44C113.5 55.5 94.4998 60 86 65H139C134.5 63 128.5 56.2 124.5 55C122.833 54.5 119.5 57 119 57C118.5 57 118.195 56.4071 118.5 56C124.836 47.5517 117.5 44 112 44Z" fill="#F1E4F3"/>
</svg>
