<svg width="278" height="256" viewBox="0 0 278 256" fill="none" xmlns="http://www.w3.org/2000/svg">
<path d="M58.5 41C13.5 35.9308 4 41 2 42.5V255.5H267.5V41C232.3 12.5999 178.5 1.49997 146 0C139.167 15.5 112.013 47.0281 58.5 41Z" fill="url(#paint0_linear_110_30587)"/>
<path d="M142.5 45C162.9 26.2 154.667 7.16667 147.5 0.5C219.5 0.5 260.833 22.6667 278 36L277 255.5H10V143.5C20.6667 143.667 6.57716 116.485 20.5 89C28.8582 72.5 117 68.5 142.5 45Z" fill="url(#paint1_radial_110_30587)"/>
<path d="M2 107V253.5H276V96C258 96 273.5 63.5 256.5 63.5C236.5 98.5 154.087 118.444 112.5 107.5C93.5 102.5 36.6667 86.3334 21.5 87C10 107.5 2 107 2 107Z" fill="url(#paint2_radial_110_30587)"/>
<g filter="url(#filter0_f_110_30587)">
<path d="M76.9999 125C46.1357 117.932 42.5003 119.5 26.5001 125C10.5 130.5 29.4997 214.5 39.9999 210.5C50.5001 206.5 63.9999 180.5 76.9999 175.5C89.9999 170.5 154.5 150.5 202 109.5C177 114 142.5 140 76.9999 125Z" fill="#E3B76F" fill-opacity="0.6"/>
</g>
<path d="M190.5 126C224.5 98.5 244.5 93.5 257 63.5C270 63.5 278 68 278 68V256H2V199.5C21.5 199.5 34.5 186.189 51.5 184.5C115.019 178.189 151 157.949 190.5 126Z" fill="url(#paint3_linear_110_30587)"/>
<defs>
<filter id="filter0_f_110_30587" x="0.335938" y="89.5" width="221.664" height="141.138" filterUnits="userSpaceOnUse" color-interpolation-filters="sRGB">
<feFlood flood-opacity="0" result="BackgroundImageFix"/>
<feBlend mode="normal" in="SourceGraphic" in2="BackgroundImageFix" result="shape"/>
<feGaussianBlur stdDeviation="10" result="effect1_foregroundBlur_110_30587"/>
</filter>
<linearGradient id="paint0_linear_110_30587" x1="162" y1="39" x2="77" y2="305.5" gradientUnits="userSpaceOnUse">
<stop offset="0.0212968" stop-color="#E3B76F"/>
<stop offset="0.835366" stop-color="#681B15"/>
</linearGradient>
<radialGradient id="paint1_radial_110_30587" cx="0" cy="0" r="1" gradientUnits="userSpaceOnUse" gradientTransform="translate(165.5 157.5) rotate(-58.5899) scale(209.149 261.848)">
<stop offset="0.469647" stop-color="#E3B770"/>
<stop offset="0.977482" stop-color="#AF5A33"/>
</radialGradient>
<radialGradient id="paint2_radial_110_30587" cx="0" cy="0" r="1" gradientUnits="userSpaceOnUse" gradientTransform="translate(197 -6.49994) rotate(111.295) scale(335.936 686.185)">
<stop offset="0.174816" stop-color="#761912"/>
<stop offset="0.718035" stop-color="#E3B76F"/>
</radialGradient>
<linearGradient id="paint3_linear_110_30587" x1="269" y1="46.9999" x2="-116.5" y2="432.5" gradientUnits="userSpaceOnUse">
<stop offset="0.0536249" stop-color="#E3B76F"/>
<stop offset="1" stop-color="#AF5A33"/>
</linearGradient>
</defs>
</svg>
