<svg xmlns="http://www.w3.org/2000/svg" xmlns:xlink="http://www.w3.org/1999/xlink" aria-hidden="true" role="img" class="iconify iconify--logos" width="20" height="32" preserveAspectRatio="xMidYMid meet" viewBox="0 0 20 32" fill="none" >
<path d="M17.0688 12.0419C17.0299 11.1739 16.9674 10.4054 16.8875 9.76585C13.9024 11.9777 10.0905 14.9015 7.14708 17.9672C5.45308 19.7316 4.09989 21.4897 3.3475 23.1354C2.59791 24.7749 2.49711 26.1753 3.07297 27.3637C3.72199 28.7032 4.60846 29.4431 5.57994 29.8187C6.5778 30.2045 7.75423 30.2385 8.99528 29.9937C11.5124 29.4973 13.9686 27.9207 15.0521 26.6152C15.5047 26.0699 15.9487 24.9147 16.3038 23.2452C16.6484 21.6253 16.879 19.6776 17.0034 17.6973C17.1276 15.7197 17.1445 13.7331 17.0688 12.0419Z" stroke="#320D6D" stroke-width="2"/>
<rect x="12.5029" y="1" width="6" height="6" transform="rotate(48.6291 12.5029 1)" fill="#320D6D"/>
<path d="M17.0005 9.5C8.00006 16.5 6.36941 24 12.2394 24C17.5227 24 16.4177 14.6692 17.0005 9.5Z" fill="#320D6D"/>
</svg>
