<svg width="54" height="48" viewBox="0 0 54 48" fill="none" xmlns="http://www.w3.org/2000/svg">
<path fill-rule="evenodd" clip-rule="evenodd" d="M26.8576 47.2285C23.9305 35.5204 19.54 21.178 11.0516 24.3977C3.73406 27.1734 6.36838 35.7156 9.29541 35.5204C7.24649 33.4715 10.5963 30.2518 12.2224 33.1788C13.8486 36.1058 8.1246 38.4475 4.02676 34.6423C-0.36378 30.5654 -0.917985 22.9635 4.02676 17.6656C8.1246 13.275 14.6616 14.5434 15.1495 14.7385C13.9786 13.5677 13.3932 11.3432 20.4181 9.46989C22.7597 8.84547 26.8576 4.78665 26.8576 0.688812C26.8576 4.78665 30.9554 8.84547 33.297 9.46989C40.3219 11.3432 39.7365 13.5677 38.5657 14.7385C39.0535 14.5434 45.5905 13.275 49.6884 17.6656C54.6331 22.9635 54.0789 30.5654 49.6884 34.6423C45.5905 38.4475 39.8666 36.1058 41.4927 33.1788C43.1188 30.2518 46.4686 33.4715 44.4197 35.5204C47.3468 35.7156 49.9811 27.1734 42.6635 24.3977C34.1751 21.178 29.7846 35.5204 26.8576 47.2285Z" fill="#E2C044"/>
</svg>
