<svg width="326" height="302" viewBox="0 0 326 302" fill="none" xmlns="http://www.w3.org/2000/svg">
<path d="M66 48C12.9141 42.02 2.35937 48.2305 0 50V301.41L326 302V50C284.475 16.4968 208.34 1.7695 170 0C161.939 18.2851 129.129 55.1114 66 48Z" fill="url(#paint0_linear_339_153)"/>
<path d="M165.746 53.0859C189.812 30.9078 178.454 7.86458 170 0C254.937 0 305.749 26.2708 326 42V302L9.4375 301.41V169.285C22.0208 169.482 5.57541 137.424 22 105C31.8601 85.5352 135.664 80.8086 165.746 53.0859Z" fill="url(#paint1_radial_339_153)"/>
<path d="M0 126V302H326V113C304.766 113 320.055 75 300 75C276.406 116.289 180.06 139.911 131 127C108.586 121.102 40.8919 102.214 23 103C9.4336 127.184 0 126 0 126Z" fill="url(#paint2_radial_339_153)"/>
<g filter="url(#filter0_f_339_153)">
<path d="M88.4761 147.461C52.066 139.123 47.7774 140.973 28.9022 147.461C10.027 153.949 32.4407 253.043 44.8277 248.324C57.2147 243.605 73.1402 212.934 88.4761 207.035C103.812 201.137 179.902 177.543 235.937 129.176C206.445 134.484 165.746 165.156 88.4761 147.461Z" fill="#E3B76F" fill-opacity="0.6"/>
</g>
<path d="M222.371 148.641C262.48 116.199 285.254 110.391 300 75C315.336 75 326 80 326 80V302L0 302V235.348C23.0039 235.348 38.3398 219.645 58.3945 217.652C133.327 210.208 175.773 186.33 222.371 148.641Z" fill="url(#paint3_linear_339_153)"/>
<defs>
<filter id="filter0_f_339_153" x="1.63037" y="109.176" width="254.306" height="159.312" filterUnits="userSpaceOnUse" color-interpolation-filters="sRGB">
<feFlood flood-opacity="0" result="BackgroundImageFix"/>
<feBlend mode="normal" in="SourceGraphic" in2="BackgroundImageFix" result="shape"/>
<feGaussianBlur stdDeviation="10" result="effect1_foregroundBlur_339_153"/>
</filter>
<linearGradient id="paint0_linear_339_153" x1="188.75" y1="46.0078" x2="88.4766" y2="360.394" gradientUnits="userSpaceOnUse">
<stop offset="0.0212968" stop-color="#E3B76F"/>
<stop offset="0.835366" stop-color="#681B15"/>
</linearGradient>
<radialGradient id="paint1_radial_339_153" cx="0" cy="0" r="1" gradientUnits="userSpaceOnUse" gradientTransform="translate(192.879 185.801) rotate(-58.5899) scale(246.73 308.899)">
<stop offset="0.469647" stop-color="#E3B770"/>
<stop offset="0.977482" stop-color="#AF5A33"/>
</radialGradient>
<radialGradient id="paint2_radial_339_153" cx="0" cy="0" r="1" gradientUnits="userSpaceOnUse" gradientTransform="translate(230.039 -7.6679) rotate(111.295) scale(396.299 809.484)">
<stop offset="0.174816" stop-color="#761912"/>
<stop offset="0.718035" stop-color="#E3B76F"/>
</radialGradient>
<linearGradient id="paint3_linear_339_153" x1="314.976" y1="55.4452" x2="-139.793" y2="510.215" gradientUnits="userSpaceOnUse">
<stop offset="0.0536249" stop-color="#E3B76F"/>
<stop offset="1" stop-color="#AF5A33"/>
</linearGradient>
</defs>
</svg>
